<svg width="1363" height="163" viewBox="0 0 1363 163" fill="none" xmlns="http://www.w3.org/2000/svg">
<path d="M0 15C0 6.71573 6.71573 0 15 0H37V163H15C6.71573 163 0 156.284 0 148V15Z" fill="#424242"/>
<rect width="1097" height="163" transform="translate(37)" fill="#F0F0F0"/>
<path d="M105.902 50.8867V53.6289H96.9961V50.8867H105.902ZM98.0391 43.9375V61H94.5234V43.9375H98.0391ZM108.41 43.9375V61H104.906V43.9375H108.41ZM118.758 57.9648V48.3203H122.133V61H118.957L118.758 57.9648ZM119.133 55.3633L120.129 55.3398C120.129 56.1836 120.031 56.9688 119.836 57.6953C119.641 58.4141 119.348 59.0391 118.957 59.5703C118.566 60.0938 118.074 60.5039 117.48 60.8008C116.887 61.0898 116.188 61.2344 115.383 61.2344C114.766 61.2344 114.195 61.1484 113.672 60.9766C113.156 60.7969 112.711 60.5195 112.336 60.1445C111.969 59.7617 111.68 59.2734 111.469 58.6797C111.266 58.0781 111.164 57.3555 111.164 56.5117V48.3203H114.539V56.5352C114.539 56.9102 114.582 57.2266 114.668 57.4844C114.762 57.7422 114.891 57.9531 115.055 58.1172C115.219 58.2812 115.41 58.3984 115.629 58.4688C115.855 58.5391 116.105 58.5742 116.379 58.5742C117.074 58.5742 117.621 58.4336 118.02 58.1523C118.426 57.8711 118.711 57.4883 118.875 57.0039C119.047 56.5117 119.133 55.9648 119.133 55.3633ZM128.273 43V61H124.887V43H128.273ZM138.562 57.9648V48.3203H141.938V61H138.762L138.562 57.9648ZM138.938 55.3633L139.934 55.3398C139.934 56.1836 139.836 56.9688 139.641 57.6953C139.445 58.4141 139.152 59.0391 138.762 59.5703C138.371 60.0938 137.879 60.5039 137.285 60.8008C136.691 61.0898 135.992 61.2344 135.188 61.2344C134.57 61.2344 134 61.1484 133.477 60.9766C132.961 60.7969 132.516 60.5195 132.141 60.1445C131.773 59.7617 131.484 59.2734 131.273 58.6797C131.07 58.0781 130.969 57.3555 130.969 56.5117V48.3203H134.344V56.5352C134.344 56.9102 134.387 57.2266 134.473 57.4844C134.566 57.7422 134.695 57.9531 134.859 58.1172C135.023 58.2812 135.215 58.3984 135.434 58.4688C135.66 58.5391 135.91 58.5742 136.184 58.5742C136.879 58.5742 137.426 58.4336 137.824 58.1523C138.23 57.8711 138.516 57.4883 138.68 57.0039C138.852 56.5117 138.938 55.9648 138.938 55.3633ZM160.594 55.3398H164.098C164.027 56.4883 163.711 57.5078 163.148 58.3984C162.594 59.2891 161.816 59.9844 160.816 60.4844C159.824 60.9844 158.629 61.2344 157.23 61.2344C156.137 61.2344 155.156 61.0469 154.289 60.6719C153.422 60.2891 152.68 59.7422 152.062 59.0312C151.453 58.3203 150.988 57.4609 150.668 56.4531C150.348 55.4453 150.188 54.3164 150.188 53.0664V51.8828C150.188 50.6328 150.352 49.5039 150.68 48.4961C151.016 47.4805 151.492 46.6172 152.109 45.9062C152.734 45.1953 153.48 44.6484 154.348 44.2656C155.215 43.8828 156.184 43.6914 157.254 43.6914C158.676 43.6914 159.875 43.9492 160.852 44.4648C161.836 44.9805 162.598 45.6914 163.137 46.5977C163.684 47.5039 164.012 48.5352 164.121 49.6914H160.605C160.566 49.0039 160.43 48.4219 160.195 47.9453C159.961 47.4609 159.605 47.0977 159.129 46.8555C158.66 46.6055 158.035 46.4805 157.254 46.4805C156.668 46.4805 156.156 46.5898 155.719 46.8086C155.281 47.0273 154.914 47.3594 154.617 47.8047C154.32 48.25 154.098 48.8125 153.949 49.4922C153.809 50.1641 153.738 50.9531 153.738 51.8594V53.0664C153.738 53.9492 153.805 54.7266 153.938 55.3984C154.07 56.0625 154.273 56.625 154.547 57.0859C154.828 57.5391 155.188 57.8828 155.625 58.1172C156.07 58.3438 156.605 58.457 157.23 58.457C157.965 58.457 158.57 58.3398 159.047 58.1055C159.523 57.8711 159.887 57.5234 160.137 57.0625C160.395 56.6016 160.547 56.0273 160.594 55.3398ZM169.758 43V61H166.371V43H169.758ZM172.008 54.7891V54.543C172.008 53.6133 172.141 52.7578 172.406 51.9766C172.672 51.1875 173.059 50.5039 173.566 49.9258C174.074 49.3477 174.699 48.8984 175.441 48.5781C176.184 48.25 177.035 48.0859 177.996 48.0859C178.957 48.0859 179.812 48.25 180.562 48.5781C181.312 48.8984 181.941 49.3477 182.449 49.9258C182.965 50.5039 183.355 51.1875 183.621 51.9766C183.887 52.7578 184.02 53.6133 184.02 54.543V54.7891C184.02 55.7109 183.887 56.5664 183.621 57.3555C183.355 58.1367 182.965 58.8203 182.449 59.4062C181.941 59.9844 181.316 60.4336 180.574 60.7539C179.832 61.0742 178.98 61.2344 178.02 61.2344C177.059 61.2344 176.203 61.0742 175.453 60.7539C174.711 60.4336 174.082 59.9844 173.566 59.4062C173.059 58.8203 172.672 58.1367 172.406 57.3555C172.141 56.5664 172.008 55.7109 172.008 54.7891ZM175.383 54.543V54.7891C175.383 55.3203 175.43 55.8164 175.523 56.2773C175.617 56.7383 175.766 57.1445 175.969 57.4961C176.18 57.8398 176.453 58.1094 176.789 58.3047C177.125 58.5 177.535 58.5977 178.02 58.5977C178.488 58.5977 178.891 58.5 179.227 58.3047C179.562 58.1094 179.832 57.8398 180.035 57.4961C180.238 57.1445 180.387 56.7383 180.48 56.2773C180.582 55.8164 180.633 55.3203 180.633 54.7891V54.543C180.633 54.0273 180.582 53.543 180.48 53.0898C180.387 52.6289 180.234 52.2227 180.023 51.8711C179.82 51.5117 179.551 51.2305 179.215 51.0273C178.879 50.8242 178.473 50.7227 177.996 50.7227C177.52 50.7227 177.113 50.8242 176.777 51.0273C176.449 51.2305 176.18 51.5117 175.969 51.8711C175.766 52.2227 175.617 52.6289 175.523 53.0898C175.43 53.543 175.383 54.0273 175.383 54.543ZM189.398 51.0273V61H186.023V48.3203H189.188L189.398 51.0273ZM188.906 54.2148H187.992C187.992 53.2773 188.113 52.4336 188.355 51.6836C188.598 50.9258 188.938 50.2812 189.375 49.75C189.812 49.2109 190.332 48.8008 190.934 48.5195C191.543 48.2305 192.223 48.0859 192.973 48.0859C193.566 48.0859 194.109 48.1719 194.602 48.3438C195.094 48.5156 195.516 48.7891 195.867 49.1641C196.227 49.5391 196.5 50.0352 196.688 50.6523C196.883 51.2695 196.98 52.0234 196.98 52.9141V61H193.582V52.9023C193.582 52.3398 193.504 51.9023 193.348 51.5898C193.191 51.2773 192.961 51.0586 192.656 50.9336C192.359 50.8008 191.992 50.7344 191.555 50.7344C191.102 50.7344 190.707 50.8242 190.371 51.0039C190.043 51.1836 189.77 51.4336 189.551 51.7539C189.34 52.0664 189.18 52.4336 189.07 52.8555C188.961 53.2773 188.906 53.7305 188.906 54.2148ZM205.383 61.2344C204.398 61.2344 203.516 61.0781 202.734 60.7656C201.953 60.4453 201.289 60.0039 200.742 59.4414C200.203 58.8789 199.789 58.2266 199.5 57.4844C199.211 56.7344 199.066 55.9375 199.066 55.0938V54.625C199.066 53.6641 199.203 52.7852 199.477 51.9883C199.75 51.1914 200.141 50.5 200.648 49.9141C201.164 49.3281 201.789 48.8789 202.523 48.5664C203.258 48.2461 204.086 48.0859 205.008 48.0859C205.906 48.0859 206.703 48.2344 207.398 48.5312C208.094 48.8281 208.676 49.25 209.145 49.7969C209.621 50.3438 209.98 51 210.223 51.7656C210.465 52.5234 210.586 53.3672 210.586 54.2969V55.7031H200.508V53.4531H207.27V53.1953C207.27 52.7266 207.184 52.3086 207.012 51.9414C206.848 51.5664 206.598 51.2695 206.262 51.0508C205.926 50.832 205.496 50.7227 204.973 50.7227C204.527 50.7227 204.145 50.8203 203.824 51.0156C203.504 51.2109 203.242 51.4844 203.039 51.8359C202.844 52.1875 202.695 52.6016 202.594 53.0781C202.5 53.5469 202.453 54.0625 202.453 54.625V55.0938C202.453 55.6016 202.523 56.0703 202.664 56.5C202.812 56.9297 203.02 57.3008 203.285 57.6133C203.559 57.9258 203.887 58.168 204.27 58.3398C204.66 58.5117 205.102 58.5977 205.594 58.5977C206.203 58.5977 206.77 58.4805 207.293 58.2461C207.824 58.0039 208.281 57.6406 208.664 57.1562L210.305 58.9375C210.039 59.3203 209.676 59.6875 209.215 60.0391C208.762 60.3906 208.215 60.6797 207.574 60.9062C206.934 61.125 206.203 61.2344 205.383 61.2344Z" fill="#888888"/>
<path d="M113.18 109.93C113.18 109.398 113.102 108.922 112.945 108.5C112.789 108.062 112.5 107.656 112.078 107.281C111.656 106.906 111.047 106.531 110.25 106.156C109.469 105.766 108.438 105.359 107.156 104.938C105.656 104.438 104.211 103.875 102.82 103.25C101.43 102.609 100.188 101.867 99.0938 101.023C98 100.164 97.1328 99.1641 96.4922 98.0234C95.8516 96.8672 95.5312 95.5234 95.5312 93.9922C95.5312 92.5234 95.8594 91.2031 96.5156 90.0312C97.1719 88.8438 98.0859 87.8359 99.2578 87.0078C100.445 86.1641 101.836 85.5234 103.43 85.0859C105.023 84.6328 106.766 84.4062 108.656 84.4062C111.156 84.4062 113.359 84.8438 115.266 85.7188C117.188 86.5781 118.688 87.8047 119.766 89.3984C120.859 90.9766 121.406 92.8438 121.406 95H113.227C113.227 94.1406 113.047 93.3828 112.688 92.7266C112.344 92.0703 111.82 91.5547 111.117 91.1797C110.414 90.8047 109.531 90.6172 108.469 90.6172C107.438 90.6172 106.57 90.7734 105.867 91.0859C105.164 91.3984 104.633 91.8203 104.273 92.3516C103.914 92.8672 103.734 93.4375 103.734 94.0625C103.734 94.5781 103.875 95.0469 104.156 95.4688C104.453 95.875 104.867 96.2578 105.398 96.6172C105.945 96.9766 106.602 97.3203 107.367 97.6484C108.148 97.9766 109.023 98.2969 109.992 98.6094C111.805 99.1875 113.414 99.8359 114.82 100.555C116.242 101.258 117.438 102.062 118.406 102.969C119.391 103.859 120.133 104.875 120.633 106.016C121.148 107.156 121.406 108.445 121.406 109.883C121.406 111.414 121.109 112.773 120.516 113.961C119.922 115.148 119.07 116.156 117.961 116.984C116.852 117.797 115.523 118.414 113.977 118.836C112.43 119.258 110.703 119.469 108.797 119.469C107.047 119.469 105.32 119.25 103.617 118.812C101.93 118.359 100.398 117.672 99.0234 116.75C97.6484 115.812 96.5469 114.617 95.7188 113.164C94.9062 111.695 94.5 109.953 94.5 107.938H102.75C102.75 108.938 102.883 109.781 103.148 110.469C103.414 111.156 103.805 111.711 104.32 112.133C104.836 112.539 105.469 112.836 106.219 113.023C106.969 113.195 107.828 113.281 108.797 113.281C109.844 113.281 110.688 113.133 111.328 112.836C111.969 112.523 112.438 112.117 112.734 111.617C113.031 111.102 113.18 110.539 113.18 109.93ZM133.031 99.0547V119H125.133V93.6406H132.539L133.031 99.0547ZM132.094 105.453L130.242 105.5C130.242 103.562 130.477 101.836 130.945 100.32C131.414 98.7891 132.078 97.4922 132.938 96.4297C133.797 95.3672 134.82 94.5625 136.008 94.0156C137.211 93.4531 138.547 93.1719 140.016 93.1719C141.188 93.1719 142.258 93.3438 143.227 93.6875C144.211 94.0312 145.055 94.5859 145.758 95.3516C146.477 96.1172 147.023 97.1328 147.398 98.3984C147.789 99.6484 147.984 101.195 147.984 103.039V119H140.039V103.016C140.039 102 139.898 101.227 139.617 100.695C139.336 100.148 138.93 99.7734 138.398 99.5703C137.867 99.3672 137.219 99.2656 136.453 99.2656C135.641 99.2656 134.953 99.4219 134.391 99.7344C133.828 100.047 133.375 100.484 133.031 101.047C132.703 101.594 132.461 102.242 132.305 102.992C132.164 103.742 132.094 104.562 132.094 105.453ZM165.539 112.625V102.172C165.539 101.453 165.438 100.836 165.234 100.32C165.031 99.8047 164.711 99.4062 164.273 99.125C163.836 98.8281 163.25 98.6797 162.516 98.6797C161.922 98.6797 161.414 98.7812 160.992 98.9844C160.57 99.1875 160.25 99.4922 160.031 99.8984C159.812 100.305 159.703 100.82 159.703 101.445H151.805C151.805 100.273 152.062 99.1875 152.578 98.1875C153.109 97.1719 153.859 96.2891 154.828 95.5391C155.812 94.7891 156.984 94.2109 158.344 93.8047C159.719 93.3828 161.25 93.1719 162.938 93.1719C164.953 93.1719 166.75 93.5078 168.328 94.1797C169.922 94.8516 171.18 95.8594 172.102 97.2031C173.023 98.5312 173.484 100.203 173.484 102.219V112.602C173.484 114.258 173.578 115.516 173.766 116.375C173.953 117.219 174.219 117.961 174.562 118.602V119H166.641C166.266 118.219 165.984 117.266 165.797 116.141C165.625 115 165.539 113.828 165.539 112.625ZM166.5 103.508L166.547 107.727H163.055C162.32 107.727 161.695 107.828 161.18 108.031C160.68 108.234 160.273 108.516 159.961 108.875C159.664 109.219 159.445 109.609 159.305 110.047C159.18 110.484 159.117 110.945 159.117 111.43C159.117 111.898 159.227 112.32 159.445 112.695C159.68 113.055 159.992 113.336 160.383 113.539C160.773 113.742 161.211 113.844 161.695 113.844C162.57 113.844 163.312 113.68 163.922 113.352C164.547 113.008 165.023 112.594 165.352 112.109C165.68 111.625 165.844 111.172 165.844 110.75L167.578 113.984C167.266 114.609 166.906 115.242 166.5 115.883C166.109 116.523 165.617 117.117 165.023 117.664C164.445 118.195 163.734 118.633 162.891 118.977C162.047 119.305 161.023 119.469 159.82 119.469C158.258 119.469 156.82 119.148 155.508 118.508C154.211 117.867 153.172 116.977 152.391 115.836C151.609 114.68 151.219 113.352 151.219 111.852C151.219 110.539 151.453 109.367 151.922 108.336C152.406 107.305 153.133 106.43 154.102 105.711C155.07 104.992 156.305 104.445 157.805 104.07C159.305 103.695 161.07 103.508 163.102 103.508H166.5ZM185.836 98.5156V128.75H177.938V93.6406H185.297L185.836 98.5156ZM201.398 106.016V106.508C201.398 108.352 201.188 110.062 200.766 111.641C200.344 113.219 199.719 114.594 198.891 115.766C198.062 116.938 197.031 117.852 195.797 118.508C194.578 119.148 193.164 119.469 191.555 119.469C190.039 119.469 188.734 119.133 187.641 118.461C186.547 117.789 185.633 116.859 184.898 115.672C184.164 114.484 183.57 113.125 183.117 111.594C182.664 110.062 182.305 108.445 182.039 106.742V106.109C182.305 104.281 182.664 102.586 183.117 101.023C183.57 99.4453 184.164 98.0703 184.898 96.8984C185.633 95.7266 186.539 94.8125 187.617 94.1562C188.711 93.5 190.016 93.1719 191.531 93.1719C193.141 93.1719 194.555 93.4766 195.773 94.0859C197.008 94.6953 198.039 95.5703 198.867 96.7109C199.711 97.8359 200.344 99.1875 200.766 100.766C201.188 102.344 201.398 104.094 201.398 106.016ZM193.5 106.508V106.016C193.5 105.031 193.43 104.133 193.289 103.32C193.148 102.492 192.922 101.773 192.609 101.164C192.312 100.555 191.914 100.086 191.414 99.7578C190.914 99.4297 190.297 99.2656 189.562 99.2656C188.719 99.2656 188.008 99.3984 187.43 99.6641C186.867 99.9141 186.414 100.305 186.07 100.836C185.742 101.352 185.508 102 185.367 102.781C185.242 103.547 185.188 104.445 185.203 105.477V107.398C185.172 108.586 185.289 109.633 185.555 110.539C185.82 111.43 186.281 112.125 186.938 112.625C187.594 113.125 188.484 113.375 189.609 113.375C190.359 113.375 190.984 113.203 191.484 112.859C191.984 112.5 192.383 112.008 192.68 111.383C192.977 110.742 193.188 110.008 193.312 109.18C193.438 108.352 193.5 107.461 193.5 106.508ZM218.203 111.875C218.203 111.438 218.055 111.062 217.758 110.75C217.477 110.422 216.977 110.125 216.258 109.859C215.539 109.578 214.531 109.297 213.234 109.016C212 108.75 210.836 108.398 209.742 107.961C208.664 107.523 207.719 106.992 206.906 106.367C206.094 105.742 205.453 105 204.984 104.141C204.531 103.281 204.305 102.297 204.305 101.188C204.305 100.109 204.531 99.0938 204.984 98.1406C205.453 97.1719 206.133 96.3203 207.023 95.5859C207.93 94.8359 209.031 94.25 210.328 93.8281C211.625 93.3906 213.102 93.1719 214.758 93.1719C217.039 93.1719 219.008 93.5234 220.664 94.2266C222.32 94.9141 223.594 95.8828 224.484 97.1328C225.391 98.3672 225.844 99.7969 225.844 101.422H217.945C217.945 100.781 217.836 100.234 217.617 99.7812C217.414 99.3281 217.078 98.9844 216.609 98.75C216.141 98.5 215.516 98.375 214.734 98.375C214.188 98.375 213.688 98.4766 213.234 98.6797C212.797 98.8828 212.445 99.1641 212.18 99.5234C211.914 99.8828 211.781 100.305 211.781 100.789C211.781 101.133 211.859 101.445 212.016 101.727C212.188 101.992 212.445 102.242 212.789 102.477C213.133 102.695 213.57 102.898 214.102 103.086C214.633 103.258 215.273 103.414 216.023 103.555C217.727 103.867 219.32 104.312 220.805 104.891C222.289 105.469 223.492 106.289 224.414 107.352C225.352 108.414 225.82 109.844 225.82 111.641C225.82 112.766 225.562 113.805 225.047 114.758C224.531 115.695 223.789 116.523 222.82 117.242C221.852 117.945 220.688 118.492 219.328 118.883C217.969 119.273 216.438 119.469 214.734 119.469C212.312 119.469 210.266 119.039 208.594 118.18C206.922 117.305 205.656 116.211 204.797 114.898C203.953 113.57 203.531 112.227 203.531 110.867H210.891C210.922 111.648 211.109 112.289 211.453 112.789C211.812 113.289 212.289 113.656 212.883 113.891C213.477 114.125 214.164 114.242 214.945 114.242C215.664 114.242 216.258 114.141 216.727 113.938C217.211 113.734 217.578 113.461 217.828 113.117C218.078 112.758 218.203 112.344 218.203 111.875ZM237.258 83V119H229.359V83H237.258ZM236.32 105.453L234.469 105.5C234.469 103.719 234.688 102.078 235.125 100.578C235.562 99.0781 236.188 97.7734 237 96.6641C237.812 95.5547 238.789 94.6953 239.93 94.0859C241.07 93.4766 242.336 93.1719 243.727 93.1719C244.977 93.1719 246.117 93.3516 247.148 93.7109C248.195 94.0703 249.094 94.6484 249.844 95.4453C250.609 96.2422 251.195 97.2812 251.602 98.5625C252.023 99.8438 252.234 101.406 252.234 103.25V119H244.289V103.203C244.289 102.172 244.141 101.375 243.844 100.812C243.562 100.234 243.156 99.8359 242.625 99.6172C242.094 99.3828 241.445 99.2656 240.68 99.2656C239.758 99.2656 239.008 99.4219 238.43 99.7344C237.852 100.047 237.406 100.484 237.094 101.047C236.797 101.594 236.594 102.242 236.484 102.992C236.375 103.742 236.32 104.562 236.32 105.453ZM255.633 106.578V106.086C255.633 104.227 255.898 102.516 256.43 100.953C256.961 99.375 257.742 98.0078 258.773 96.8516C259.805 95.6953 261.078 94.7969 262.594 94.1562C264.109 93.5 265.859 93.1719 267.844 93.1719C269.844 93.1719 271.602 93.5 273.117 94.1562C274.648 94.7969 275.93 95.6953 276.961 96.8516C277.992 98.0078 278.773 99.375 279.305 100.953C279.836 102.516 280.102 104.227 280.102 106.086V106.578C280.102 108.422 279.836 110.133 279.305 111.711C278.773 113.273 277.992 114.641 276.961 115.812C275.93 116.969 274.656 117.867 273.141 118.508C271.625 119.148 269.875 119.469 267.891 119.469C265.906 119.469 264.148 119.148 262.617 118.508C261.086 117.867 259.805 116.969 258.773 115.812C257.742 114.641 256.961 113.273 256.43 111.711C255.898 110.133 255.633 108.422 255.633 106.578ZM263.531 106.086V106.578C263.531 107.531 263.602 108.422 263.742 109.25C263.883 110.078 264.117 110.805 264.445 111.43C264.773 112.039 265.219 112.516 265.781 112.859C266.344 113.203 267.047 113.375 267.891 113.375C268.719 113.375 269.406 113.203 269.953 112.859C270.516 112.516 270.961 112.039 271.289 111.43C271.617 110.805 271.852 110.078 271.992 109.25C272.133 108.422 272.203 107.531 272.203 106.578V106.086C272.203 105.164 272.133 104.297 271.992 103.484C271.852 102.656 271.617 101.93 271.289 101.305C270.961 100.664 270.516 100.164 269.953 99.8047C269.391 99.4453 268.688 99.2656 267.844 99.2656C267.016 99.2656 266.32 99.4453 265.758 99.8047C265.211 100.164 264.773 100.664 264.445 101.305C264.117 101.93 263.883 102.656 263.742 103.484C263.602 104.297 263.531 105.164 263.531 106.086ZM296.977 93.6406V99.125H281.695V93.6406H296.977ZM284.906 87.3359H292.805V110.727C292.805 111.398 292.883 111.922 293.039 112.297C293.195 112.656 293.461 112.914 293.836 113.07C294.227 113.211 294.742 113.281 295.383 113.281C295.836 113.281 296.211 113.273 296.508 113.258C296.805 113.227 297.086 113.188 297.352 113.141V118.789C296.68 119.008 295.977 119.172 295.242 119.281C294.508 119.406 293.727 119.469 292.898 119.469C291.211 119.469 289.766 119.203 288.562 118.672C287.375 118.141 286.469 117.305 285.844 116.164C285.219 115.023 284.906 113.539 284.906 111.711V87.3359ZM313.406 111.875C313.406 111.438 313.258 111.062 312.961 110.75C312.68 110.422 312.18 110.125 311.461 109.859C310.742 109.578 309.734 109.297 308.438 109.016C307.203 108.75 306.039 108.398 304.945 107.961C303.867 107.523 302.922 106.992 302.109 106.367C301.297 105.742 300.656 105 300.188 104.141C299.734 103.281 299.508 102.297 299.508 101.188C299.508 100.109 299.734 99.0938 300.188 98.1406C300.656 97.1719 301.336 96.3203 302.227 95.5859C303.133 94.8359 304.234 94.25 305.531 93.8281C306.828 93.3906 308.305 93.1719 309.961 93.1719C312.242 93.1719 314.211 93.5234 315.867 94.2266C317.523 94.9141 318.797 95.8828 319.688 97.1328C320.594 98.3672 321.047 99.7969 321.047 101.422H313.148C313.148 100.781 313.039 100.234 312.82 99.7812C312.617 99.3281 312.281 98.9844 311.812 98.75C311.344 98.5 310.719 98.375 309.938 98.375C309.391 98.375 308.891 98.4766 308.438 98.6797C308 98.8828 307.648 99.1641 307.383 99.5234C307.117 99.8828 306.984 100.305 306.984 100.789C306.984 101.133 307.062 101.445 307.219 101.727C307.391 101.992 307.648 102.242 307.992 102.477C308.336 102.695 308.773 102.898 309.305 103.086C309.836 103.258 310.477 103.414 311.227 103.555C312.93 103.867 314.523 104.312 316.008 104.891C317.492 105.469 318.695 106.289 319.617 107.352C320.555 108.414 321.023 109.844 321.023 111.641C321.023 112.766 320.766 113.805 320.25 114.758C319.734 115.695 318.992 116.523 318.023 117.242C317.055 117.945 315.891 118.492 314.531 118.883C313.172 119.273 311.641 119.469 309.938 119.469C307.516 119.469 305.469 119.039 303.797 118.18C302.125 117.305 300.859 116.211 300 114.898C299.156 113.57 298.734 112.227 298.734 110.867H306.094C306.125 111.648 306.312 112.289 306.656 112.789C307.016 113.289 307.492 113.656 308.086 113.891C308.68 114.125 309.367 114.242 310.148 114.242C310.867 114.242 311.461 114.141 311.93 113.938C312.414 113.734 312.781 113.461 313.031 113.117C313.281 112.758 313.406 112.344 313.406 111.875Z" fill="black"/>
<path d="M1134 0H1348C1356.28 0 1363 6.71573 1363 15V148C1363 156.284 1356.28 163 1348 163H1134V0Z" fill="#1DE783"/>
<path fill-rule="evenodd" clip-rule="evenodd" d="M1202.75 46.5018C1202.75 45.3973 1203.65 44.5018 1204.75 44.5018H1292.25C1293.35 44.5018 1294.25 45.3973 1294.25 46.5018V116.498C1294.25 117.603 1293.35 118.498 1292.25 118.498H1204.75C1203.65 118.498 1202.75 117.603 1202.75 116.498V46.5018ZM1206.75 48.5018V52.9963H1290.25V48.5018H1206.75ZM1290.25 56.9963H1235.19V114.498H1290.25V56.9963ZM1231.19 114.498V56.9963H1206.75V114.498H1231.19Z" fill="white"/>
<path fill-rule="evenodd" clip-rule="evenodd" d="M1209.72 62.3022C1209.72 61.1976 1210.62 60.3022 1211.72 60.3022H1225.72C1226.83 60.3022 1227.72 61.1976 1227.72 62.3022V81.6974C1227.72 82.802 1226.83 83.6974 1225.72 83.6974H1211.72C1210.62 83.6974 1209.72 82.802 1209.72 81.6974V62.3022ZM1213.72 64.3022V79.6974H1223.72V64.3022H1213.72ZM1239.33 63.1982C1239.33 62.0936 1240.22 61.1982 1241.33 61.1982H1284.25C1285.36 61.1982 1286.25 62.0936 1286.25 63.1982V109.407C1286.25 110.511 1285.36 111.407 1284.25 111.407H1241.33C1240.22 111.407 1239.33 110.511 1239.33 109.407V63.1982ZM1243.33 65.1982V107.407H1282.25V65.1982H1243.33ZM1209.56 93.4381C1209.56 92.3336 1210.46 91.4381 1211.56 91.4381H1220.48C1221.59 91.4381 1222.48 92.3336 1222.48 93.4381C1222.48 94.5427 1221.59 95.4381 1220.48 95.4381H1211.56C1210.46 95.4381 1209.56 94.5427 1209.56 93.4381ZM1209.56 100.438C1209.56 99.3335 1210.46 98.4381 1211.56 98.4381H1226.1C1227.21 98.4381 1228.1 99.3335 1228.1 100.438C1228.1 101.543 1227.21 102.438 1226.1 102.438H1211.56C1210.46 102.438 1209.56 101.543 1209.56 100.438ZM1209.56 107.438C1209.56 106.334 1210.46 105.438 1211.56 105.438H1220.48C1221.59 105.438 1222.48 106.334 1222.48 107.438C1222.48 108.543 1221.59 109.438 1220.48 109.438H1211.56C1210.46 109.438 1209.56 108.543 1209.56 107.438Z" fill="white"/>
</svg>
